<svg width="32" height="32" viewBox="0 0 32 32" fill="none" xmlns="http://www.w3.org/2000/svg">
  <!-- Background circle with gradient -->
  <circle cx="16" cy="16" r="16" fill="url(#bg-gradient)"/>
  
  <!-- Support/Help icon -->
  <path d="M16 6C11.0294 6 7 10.0294 7 15C7 19.9706 11.0294 24 16 24C20.9706 24 25 19.9706 25 15C25 10.0294 20.9706 6 16 6ZM16 22C12.134 22 9 18.866 9 15C9 11.134 12.134 8 16 8C19.866 8 23 11.134 23 15C23 18.866 19.866 22 16 22Z" fill="white"/>
  
  <!-- Question mark for help -->
  <path d="M16 19C16.5523 19 17 18.5523 17 18C17 17.4477 16.5523 17 16 17C15.4477 17 15 17.4477 15 18C15 18.5523 15.4477 19 16 19Z" fill="white"/>
  
  <path d="M16 16C16.5523 16 17 15.5523 17 15V14.5C17 13.1193 18.1193 12 19.5 12C19.7761 12 20 11.7761 20 11.5C20 11.2239 19.7761 11 19.5 11C17.567 11 16 12.567 16 14.5V15C16 15.5523 15.5523 16 15 16C14.4477 16 14 15.5523 14 15C14 13.3431 15.3431 12 17 12C18.6569 12 20 13.3431 20 15C20 16.6569 18.6569 18 17 18H16C15.4477 18 15 17.5523 15 17C15 16.4477 15.4477 16 16 16Z" fill="white"/>
  
  <defs>
    <linearGradient id="bg-gradient" x1="0" y1="0" x2="32" y2="32" gradientUnits="userSpaceOnUse">
      <stop offset="0%" stop-color="#3B82F6"/>
      <stop offset="50%" stop-color="#2563EB"/>
      <stop offset="100%" stop-color="#1D4ED8"/>
    </linearGradient>
  </defs>
</svg> 