<svg width="32" height="32" viewBox="0 0 32 32" fill="none" xmlns="http://www.w3.org/2000/svg">
  <rect width="32" height="32" rx="6" fill="url(#gradient)"/>
  <path d="M8 14C8 10.6863 10.6863 8 14 8H18C21.3137 8 24 10.6863 24 14V16C24 17.1046 23.1046 18 22 18C20.8954 18 20 17.1046 20 16V14C20 12.8954 19.1046 12 18 12H14C12.8954 12 12 12.8954 12 14V16C12 17.1046 11.1046 18 10 18C8.89543 18 8 17.1046 8 16V14Z" fill="white"/>
  <circle cx="10" cy="20" r="2" fill="white"/>
  <circle cx="22" cy="20" r="2" fill="white"/>
  <path d="M14 22H18C19.1046 22 20 22.8954 20 24C20 25.1046 19.1046 26 18 26H14C12.8954 26 12 25.1046 12 24C12 22.8954 12.8954 22 14 22Z" fill="white"/>
  <defs>
    <linearGradient id="gradient" x1="0" y1="0" x2="32" y2="32" gradientUnits="userSpaceOnUse">
      <stop offset="0%" stop-color="#3B82F6"/>
      <stop offset="100%" stop-color="#1E40AF"/>
    </linearGradient>
  </defs>
</svg> 